<?xml version="1.0" encoding="UTF-8"?>
<svg version="1.1" xmlns="http://www.w3.org/2000/svg" width="225" height="225">
<path d="M0 0 C0.67289063 0.52851562 1.34578125 1.05703125 2.0390625 1.6015625 C21.88746379 17.65425359 32.73293522 44.32588222 36 69 C37.86417766 97.28093914 30.20835681 125.20589729 11.66796875 147.015625 C-7.71480446 168.89443959 -32.91815634 181.84116264 -62.05810547 184.1640625 C-89.66568157 185.78129908 -116.25599565 176.00941508 -137 158 C-153.89225425 142.92656182 -164.94223959 124.05884613 -170 102 C-170.17515137 101.26370361 -170.35030273 100.52740723 -170.53076172 99.76879883 C-176.20980844 74.20295649 -170.44316231 45.826331 -156.77734375 23.66796875 C-154.05729603 19.58490811 -151.15432071 15.75578017 -148 12 C-147.3915625 11.23429687 -146.783125 10.46859375 -146.15625 9.6796875 C-130.99055056 -8.46082222 -106.98522792 -22.25988211 -83.26586914 -24.83227539 C-51.90368067 -27.15377345 -24.08457793 -20.70428629 0 0 Z M-133 2 C-133.64839844 2.49371094 -134.29679687 2.98742187 -134.96484375 3.49609375 C-153.57393499 18.14742325 -164.87469167 44.04455266 -168 67 C-170.17149757 94.87713932 -163.47372316 121.68083668 -145.2734375 143.4375 C-127.00742184 164.02599875 -103.53189926 178.20904901 -75.484375 179.91015625 C-74.66453125 179.93980469 -73.8446875 179.96945313 -73 180 C-72.24203125 180.03996094 -71.4840625 180.07992187 -70.703125 180.12109375 C-42.91996053 180.91356656 -17.68491125 170.42422786 2.49804688 151.60302734 C21.90135904 132.88338893 32.49124414 106.17780483 33.3125 79.375 C32.63229891 50.61760962 21.10310276 25.38802863 1 5 C-17.51308011 -11.78519263 -39.00553114 -20.97194987 -64 -22 C-64.81726563 -22.04125 -65.63453125 -22.0825 -66.4765625 -22.125 C-90.98867773 -22.78084255 -114.57855121 -14.04873982 -133 2 Z " fill="#FCFCFC" transform="translate(182,34)"/>
<path d="M0 0 C0.99 0.33 1.98 0.66 3 1 C2.34 3.97 1.68 6.94 1 10 C3.10457775 9.52264214 5.20864922 9.04305171 7.3125 8.5625 C8.48425781 8.29566406 9.65601563 8.02882813 10.86328125 7.75390625 C14.00236971 7.04686031 14.00236971 7.04686031 17 6 C17 7.32 17 8.64 17 10 C11.67904372 11.5849657 6.44991262 12.78890831 1 14 C0.67 29.51 0.34 45.02 0 61 C-1.32 61 -2.64 61 -4 61 C-5.08266248 57.75201257 -5.03436186 55.64103173 -4.87890625 52.23828125 C-4.83056641 51.12001953 -4.78222656 50.00175781 -4.73242188 48.84960938 C-4.67634766 47.68236328 -4.62027344 46.51511719 -4.5625 45.3125 C-4.51029297 44.13365234 -4.45808594 42.95480469 -4.40429688 41.74023438 C-4.27453806 38.82655906 -4.13956868 35.91321922 -4 33 C-6.475 33.495 -6.475 33.495 -9 34 C-9.144375 34.969375 -9.28875 35.93875 -9.4375 36.9375 C-10 40 -10 40 -11 41 C-13.33297433 41.04092937 -15.66705225 41.04241723 -18 41 C-17.37240135 38.07120629 -16.41377341 35.63904371 -15 33 C-17.97931181 34.34003981 -20.04045138 35.85621331 -22.375 38.125 C-24.90572358 40.34074082 -25.83575306 40.96841405 -29.25 41.625 C-32 41 -32 41 -33.9375 39.5625 C-35.58843492 35.58083343 -35.19388446 32.09851799 -34 28 C-31.75 24.875 -31.75 24.875 -29 23 C-26.1875 23.1875 -26.1875 23.1875 -24 24 C-23.5625 26.125 -23.5625 26.125 -24 29 C-26.12689146 31.276147 -28.5023433 33.1458722 -31 35 C-30.67 35.66 -30.34 36.32 -30 37 C-25.72238937 36.52470993 -23.65838373 34.2331694 -21 31 C-20.64763503 29.00326516 -20.31165441 27.00349261 -20 25 C-16.67697031 22.07573387 -12.17139721 22.86095343 -8 23 C-8.33 24.65 -8.66 26.3 -9 28 C-10.134375 27.814375 -11.26875 27.62875 -12.4375 27.4375 C-13.613125 27.293125 -14.78875 27.14875 -16 27 C-16.33 27.33 -16.66 27.66 -17 28 C-15.989375 28.53625 -14.97875 29.0725 -13.9375 29.625 C-13.36902344 29.92664063 -12.80054688 30.22828125 -12.21484375 30.5390625 C-9.17464266 31.35080079 -9.17464266 31.35080079 -3 29 C-3 24.05 -3 19.1 -3 14 C-5.536875 14.0928125 -5.536875 14.0928125 -8.125 14.1875 C-12.84576828 14.20577394 -15.9552487 13.62362246 -20 11 C-19.67 10.01 -19.34 9.02 -19 8 C-18.01 8 -17.02 8 -16 8 C-16 8.66 -16 9.32 -16 10 C-11.71 10 -7.42 10 -3 10 C-2.814375 8.081875 -2.814375 8.081875 -2.625 6.125 C-2.25 2.25 -2.25 2.25 0 0 Z M-29 27 C-29.99 28.485 -29.99 28.485 -31 30 C-30.01 29.67 -29.02 29.34 -28 29 C-28.33 28.34 -28.66 27.68 -29 27 Z M-14 37 C-13 39 -13 39 -13 39 Z " fill="#FDFDFD" transform="translate(144,79)"/>
<path d="M0 0 C0.66 0 1.32 0 2 0 C2 0.99 2 1.98 2 3 C2.97839844 2.96519531 3.95679687 2.93039063 4.96484375 2.89453125 C13.64956486 2.71520073 21.16892437 2.70072884 28.5625 7.75 C30.68711064 11.07547753 30.60088062 13.12765825 30 17 C26.67079661 21.65721283 23.50223881 24.2564388 18.4375 27.0625 C17.83196289 27.39830078 17.22642578 27.73410156 16.60253906 28.08007812 C2.03201101 36 2.03201101 36 -3 36 C-2.85873374 39.06277267 -2.71215604 42.12513542 -2.5625 45.1875 C-2.52318359 46.05181641 -2.48386719 46.91613281 -2.44335938 47.80664062 C-2.21787882 53.97728581 -2.21787882 53.97728581 -1 60 C-0.34 60.33 0.32 60.66 1 61 C1 62.32 1 63.64 1 65 C-1.375 64.8125 -1.375 64.8125 -4 64 C-5.76947169 60.5694452 -6.24227704 57.74557857 -6.1953125 53.91796875 C-6.18886719 52.98662109 -6.18242188 52.05527344 -6.17578125 51.09570312 C-6.15902344 50.13599609 -6.14226563 49.17628906 -6.125 48.1875 C-6.11597656 47.20845703 -6.10695312 46.22941406 -6.09765625 45.22070312 C-6.07417182 42.81354939 -6.0413284 40.40690257 -6 38 C-6.99 37.67 -7.98 37.34 -9 37 C-9 36.34 -9 35.68 -9 35 C-8.01 34.505 -8.01 34.505 -7 34 C-6.4515791 31.61134654 -6.4515791 31.61134654 -6.18359375 28.72265625 C-6.05919922 27.65208984 -5.93480469 26.58152344 -5.80664062 25.47851562 C-5.68482422 24.35123047 -5.56300781 23.22394531 -5.4375 22.0625 C-5.18938054 19.84469371 -4.93822989 17.62722378 -4.68359375 15.41015625 C-4.57587646 14.42152588 -4.46815918 13.43289551 -4.35717773 12.41430664 C-4 10 -4 10 -3 8 C-3.99 8.66 -4.98 9.32 -6 10 C-7.32 10 -8.64 10 -10 10 C-9.67 8.68 -9.34 7.36 -9 6 C-7.88625 5.7525 -6.7725 5.505 -5.625 5.25 C-1.95384802 4.38994661 -1.95384802 4.38994661 -0.5625 1.875 C-0.376875 1.25625 -0.19125 0.6375 0 0 Z M2 6 C-1.38491903 14.46229757 -2.12202284 23.00331643 -3 32 C-0.97653219 33.29956807 -0.97653219 33.29956807 1.43359375 32.25 C16.15230059 26.17038176 16.15230059 26.17038176 27 15 C27.34107361 12.28757567 27.34107361 12.28757567 26 10 C19.39318972 4.55909741 10.06026025 5.88088285 2 6 Z " fill="#FDFDFD" transform="translate(61,77)"/>
<path d="M0 0 C2.16034 1.70522837 2.93248862 2.6776201 3.50390625 5.40625 C3.67279482 14.32356636 2.06869475 22.61902237 0.1875 31.3125 C-0.07281006 32.53582031 -0.33312012 33.75914063 -0.60131836 35.01953125 C-0.86307861 36.16421875 -1.12483887 37.30890625 -1.39453125 38.48828125 C-1.63018799 39.52509033 -1.86584473 40.56189941 -2.10864258 41.63012695 C-2.40279053 42.41218506 -2.69693848 43.19424316 -3 44 C-4.485 44.495 -4.485 44.495 -6 45 C-6.59312798 10.28832548 -6.59312798 10.28832548 -2 1 C-1.34 0.67 -0.68 0.34 0 0 Z M-2 12 C-1 15 -1 15 -1 15 Z M-3 17 C-2 20 -2 20 -2 20 Z " fill="#FEFEFE" transform="translate(108,77)"/>
<path d="M0 0 C1.32 0 2.64 0 4 0 C4.06058594 1.02480469 4.12117187 2.04960938 4.18359375 3.10546875 C4.26805026 4.46615695 4.35269567 5.82683343 4.4375 7.1875 C4.47681641 7.86103516 4.51613281 8.53457031 4.55664062 9.22851562 C4.89207267 14.67566236 4.89207267 14.67566236 6 20 C6.66 20.33 7.32 20.66 8 21 C8 21.66 8 22.32 8 23 C6.35 23 4.7 23 3 23 C1.11608215 19.73454239 0.50712033 16.71888239 0 13 C-0.556875 13.99 -1.11375 14.98 -1.6875 16 C-4 19 -4 19 -6.75 19.375 C-7.4925 19.25125 -8.235 19.1275 -9 19 C-10.33548285 13.05103092 -9.67566443 10.2484187 -7 5 C-6.67 4.34 -6.34 3.68 -6 3 C-4.33333333 2.66666667 -2.66666667 2.33333333 -1 2 C-0.67 1.34 -0.34 0.68 0 0 Z M-4 6 C-5.85776765 9.13498292 -6.20140476 11.37471432 -6 15 C-3.47740939 13.02579865 -3.0070192 12.03254358 -2.3125 8.8125 C-2.209375 7.884375 -2.10625 6.95625 -2 6 C-2.66 6 -3.32 6 -4 6 Z " fill="#FEFEFE" transform="translate(173,100)"/>
<path d="M0 0 C0.99 0 1.98 0 3 0 C3.06058594 1.02480469 3.12117188 2.04960938 3.18359375 3.10546875 C3.26805026 4.46615695 3.35269567 5.82683343 3.4375 7.1875 C3.47681641 7.86103516 3.51613281 8.53457031 3.55664062 9.22851562 C3.89207267 14.67566236 3.89207267 14.67566236 5 20 C5.66 20.33 6.32 20.66 7 21 C7 21.66 7 22.32 7 23 C5.35 23 3.7 23 2 23 C0.11608215 19.73454239 -0.49287967 16.71888239 -1 13 C-1.556875 13.99 -2.11375 14.98 -2.6875 16 C-5 19 -5 19 -7.75 19.375 C-8.4925 19.25125 -9.235 19.1275 -10 19 C-11.33548285 13.05103092 -10.67566443 10.2484187 -8 5 C-7.67 4.34 -7.34 3.68 -7 3 C-5.01276732 2.29618843 -3.01222047 1.6288189 -1 1 C-0.67 0.67 -0.34 0.34 0 0 Z M-5 6 C-6.85776765 9.13498292 -7.20140476 11.37471432 -7 15 C-4.47740939 13.02579865 -4.0070192 12.03254358 -3.3125 8.8125 C-3.209375 7.884375 -3.10625 6.95625 -3 6 C-3.66 6 -4.32 6 -5 6 Z " fill="#FEFEFE" transform="translate(94,100)"/>
<path d="M0 0 C0.99 0 1.98 0 3 0 C3 4.29 3 8.58 3 13 C3.433125 11.906875 3.86625 10.81375 4.3125 9.6875 C6.51625585 4.62398656 6.51625585 4.62398656 9 3 C11.6875 2.8125 11.6875 2.8125 14 3 C14.33 4.32 14.66 5.64 15 7 C13.35 7 11.7 7 10 7 C9.60167969 8.07121094 9.20335937 9.14242187 8.79296875 10.24609375 C8.25840706 11.64345676 7.7232182 13.04057996 7.1875 14.4375 C6.92646484 15.14455078 6.66542969 15.85160156 6.39648438 16.58007812 C5.68264671 18.42195557 4.84775525 20.21579492 4 22 C3.01 22.33 2.02 22.66 1 23 C-1 21 -1 21 -1.23046875 17.734375 C-1.20919922 15.76210937 -1.20919922 15.76210937 -1.1875 13.75 C-1.18105469 12.44546875 -1.17460937 11.1409375 -1.16796875 9.796875 C-1.01934003 6.43717471 -0.63984932 3.2965037 0 0 Z " fill="#FDFDFD" transform="translate(148,99)"/>
<path d="M0 0 C1.11375 -0.00773438 2.2275 -0.01546875 3.375 -0.0234375 C4.44492188 -0.02085938 5.51484375 -0.01828125 6.6171875 -0.015625 C7.57995605 -0.01336914 8.54272461 -0.01111328 9.53466797 -0.00878906 C12.23087316 0.26057734 13.85818545 0.7877468 16.125 2.25 C16.62 3.24 16.62 3.24 17.125 4.25 C16.51205078 4.24476318 15.89910156 4.23952637 15.26757812 4.23413086 C2.83886801 4.14233317 -9.48215638 4.24274421 -21.875 5.25 C-22.205 4.26 -22.535 3.27 -22.875 2.25 C-15.19829702 0.35297067 -7.88762961 -0.05594064 0 0 Z " fill="#F9F9F9" transform="translate(113.875,8.75)"/>
<path d="M0 0 C3.08325358 -0.0582253 6.16636505 -0.09367134 9.25 -0.125 C10.55904297 -0.15013672 10.55904297 -0.15013672 11.89453125 -0.17578125 C12.73886719 -0.18222656 13.58320312 -0.18867188 14.453125 -0.1953125 C15.22817383 -0.20578613 16.00322266 -0.21625977 16.80175781 -0.22705078 C19.29907849 0.03089105 20.87839667 0.67239594 23 2 C23.33 2.66 23.66 3.32 24 4 C15.75 4 7.5 4 -1 4 C-0.67 2.68 -0.34 1.36 0 0 Z " fill="#E3E3E3" transform="translate(107,9)"/>
<path d="M0 0 C0.33 0 0.66 0 1 0 C1.05422947 1.4370809 1.09289723 2.87475462 1.125 4.3125 C1.14820313 5.11300781 1.17140625 5.91351563 1.1953125 6.73828125 C1 9 1 9 -1 12 C-1.66 12 -2.32 12 -3 12 C-3.29344873 7.01137151 -3.05887078 4.03770942 0 0 Z " fill="#F5F5F5" transform="translate(216,120)"/>
<path d="M0 0 C0.99 0 1.98 0 3 0 C3 2.64 3 5.28 3 8 C2.01 7.67 1.02 7.34 0 7 C-0.38133299 5.0085944 -0.71325582 3.00720923 -1 1 C-0.67 0.67 -0.34 0.34 0 0 Z " fill="#F5F5F5" transform="translate(214,97)"/>
</svg>
